# xmcd
#
# Track frame offsets: 
#        150
#        16078
#        34339
#        57460
#        78693
#        110191
#        128194
#        148287
#        170375
#        191523
#        215694
#        238232
#        258545
#        274301
#
# Disc length: 4057 seconds
#
# Revision: 2
# Processed by: cddbd v1.5.2PL0 Copyright (c) Steve Scherf et al.
# Submitted via: ExactAudioCopy v1.0b1
#
DISCID=e00fd70e
DTITLE=Howard Glazer and the EL 34s - Wired For sound
DYEAR=2011
DGENRE=Blues
TTITLE0=Touch My Heart
TTITLE1=Happy In My Arms
TTITLE2=Living On The Edge
TTITLE3=Detroit Blues Party
TTITLE4=Hurts So Badly
TTITLE5=Waiting For The Train
TTITLE6=Wall Street Bailout
TTITLE7=I Got A Good Girl
TTITLE8=Get Me Out Of Here
TTITLE9=Reel Me In
TTITLE10=Half Empty
TTITLE11=No Regrets
TTITLE12=Goodbye
TTITLE13=Detroit Blues Party (reprise)
EXTD=Great blues song writing from a special blues artist !
EXTT0=
EXTT1=
EXTT2=
EXTT3=
EXTT4=
EXTT5=
EXTT6=
EXTT7=
EXTT8=
EXTT9=
EXTT10=
EXTT11=
EXTT12=
EXTT13=
PLAYORDER=
